<?xml version="1.0" encoding="UTF-8"?>
<!-- This file is generated by npm run build:icons -->
<svg xmlns="http://www.w3.org/2000/svg" xmlns:xlink="http://www.w3.org/1999/xlink" width="0" height="0">
<defs>
<symbol viewBox="0 0 15 15" fill="none" id="arrow-down">
  <path     fill-rule="evenodd"
    clip-rule="evenodd"
    d="M7.5 2C7.77614 2 8 2.22386 8 2.5L8 11.2929L11.1464 8.14645C11.3417 7.95118 11.6583 7.95118 11.8536 8.14645C12.0488 8.34171 12.0488 8.65829 11.8536 8.85355L7.85355 12.8536C7.75979 12.9473 7.63261 13 7.5 13C7.36739 13 7.24021 12.9473 7.14645 12.8536L3.14645 8.85355C2.95118 8.65829 2.95118 8.34171 3.14645 8.14645C3.34171 7.95118 3.65829 7.95118 3.85355 8.14645L7 11.2929L7 2.5C7 2.22386 7.22386 2 7.5 2Z"
    fill="currentColor"
  ></path>
</symbol>
<symbol viewBox="0 0 15 15" fill="none" id="arrow-left">
  <path     fill-rule="evenodd"
    clip-rule="evenodd"
    d="M6.85355 3.14645C7.04882 3.34171 7.04882 3.65829 6.85355 3.85355L3.70711 7H12.5C12.7761 7 13 7.22386 13 7.5C13 7.77614 12.7761 8 12.5 8H3.70711L6.85355 11.1464C7.04882 11.3417 7.04882 11.6583 6.85355 11.8536C6.65829 12.0488 6.34171 12.0488 6.14645 11.8536L2.14645 7.85355C1.95118 7.65829 1.95118 7.34171 2.14645 7.14645L6.14645 3.14645C6.34171 2.95118 6.65829 2.95118 6.85355 3.14645Z"
    fill="currentColor"
  ></path>
</symbol>
<symbol viewBox="0 0 15 15" fill="none" id="arrow-right">
  <path     fill-rule="evenodd"
    clip-rule="evenodd"
    d="M8.14645 3.14645C8.34171 2.95118 8.65829 2.95118 8.85355 3.14645L12.8536 7.14645C13.0488 7.34171 13.0488 7.65829 12.8536 7.85355L8.85355 11.8536C8.65829 12.0488 8.34171 12.0488 8.14645 11.8536C7.95118 11.6583 7.95118 11.3417 8.14645 11.1464L11.2929 8H2.5C2.22386 8 2 7.77614 2 7.5C2 7.22386 2.22386 7 2.5 7H11.2929L8.14645 3.85355C7.95118 3.65829 7.95118 3.34171 8.14645 3.14645Z"
    fill="currentColor"
  ></path>
</symbol>
<symbol viewBox="0 0 15 15" fill="none" id="arrow-up">
  <path     fill-rule="evenodd"
    clip-rule="evenodd"
    d="M7.14645 2.14645C7.34171 1.95118 7.65829 1.95118 7.85355 2.14645L11.8536 6.14645C12.0488 6.34171 12.0488 6.65829 11.8536 6.85355C11.6583 7.04882 11.3417 7.04882 11.1464 6.85355L8 3.70711L8 12.5C8 12.7761 7.77614 13 7.5 13C7.22386 13 7 12.7761 7 12.5L7 3.70711L3.85355 6.85355C3.65829 7.04882 3.34171 7.04882 3.14645 6.85355C2.95118 6.65829 2.95118 6.34171 3.14645 6.14645L7.14645 2.14645Z"
    fill="currentColor"
  ></path>
</symbol>
<symbol viewBox="0 0 15 15" fill="none" id="avatar">
  <path     fill-rule="evenodd"
    clip-rule="evenodd"
    d="M0.877014 7.49988C0.877014 3.84219 3.84216 0.877045 7.49985 0.877045C11.1575 0.877045 14.1227 3.84219 14.1227 7.49988C14.1227 11.1575 11.1575 14.1227 7.49985 14.1227C3.84216 14.1227 0.877014 11.1575 0.877014 7.49988ZM7.49985 1.82704C4.36683 1.82704 1.82701 4.36686 1.82701 7.49988C1.82701 8.97196 2.38774 10.3131 3.30727 11.3213C4.19074 9.94119 5.73818 9.02499 7.50023 9.02499C9.26206 9.02499 10.8093 9.94097 11.6929 11.3208C12.6121 10.3127 13.1727 8.97172 13.1727 7.49988C13.1727 4.36686 10.6328 1.82704 7.49985 1.82704ZM10.9818 11.9787C10.2839 10.7795 8.9857 9.97499 7.50023 9.97499C6.01458 9.97499 4.71624 10.7797 4.01845 11.9791C4.97952 12.7272 6.18765 13.1727 7.49985 13.1727C8.81227 13.1727 10.0206 12.727 10.9818 11.9787ZM5.14999 6.50487C5.14999 5.207 6.20212 4.15487 7.49999 4.15487C8.79786 4.15487 9.84999 5.207 9.84999 6.50487C9.84999 7.80274 8.79786 8.85487 7.49999 8.85487C6.20212 8.85487 5.14999 7.80274 5.14999 6.50487ZM7.49999 5.10487C6.72679 5.10487 6.09999 5.73167 6.09999 6.50487C6.09999 7.27807 6.72679 7.90487 7.49999 7.90487C8.27319 7.90487 8.89999 7.27807 8.89999 6.50487C8.89999 5.73167 8.27319 5.10487 7.49999 5.10487Z"
    fill="currentColor"
  ></path>
</symbol>
<symbol viewBox="0 0 24 24" fill="none" stroke="currentColor" stroke-width="2" stroke-linecap="round" stroke-linejoin="round" id="calendar">
  <path d="M8 2v4" ></path>
  <path d="M16 2v4" ></path>
  <rect width="18" height="18" x="3" y="4" rx="2" ></rect>
  <path d="M3 10h18" ></path>
</symbol>
<symbol viewBox="0 0 15 15" fill="none" id="camera">
  <path     fill-rule="evenodd"
    clip-rule="evenodd"
    d="M2 3C1.44772 3 1 3.44772 1 4V11C1 11.5523 1.44772 12 2 12H13C13.5523 12 14 11.5523 14 11V4C14 3.44772 13.5523 3 13 3H2ZM0 4C0 2.89543 0.895431 2 2 2H13C14.1046 2 15 2.89543 15 4V11C15 12.1046 14.1046 13 13 13H2C0.895431 13 0 12.1046 0 11V4ZM2 4.25C2 4.11193 2.11193 4 2.25 4H4.75C4.88807 4 5 4.11193 5 4.25V5.75454C5 5.89261 4.88807 6.00454 4.75 6.00454H2.25C2.11193 6.00454 2 5.89261 2 5.75454V4.25ZM12.101 7.58421C12.101 9.02073 10.9365 10.1853 9.49998 10.1853C8.06346 10.1853 6.89893 9.02073 6.89893 7.58421C6.89893 6.14769 8.06346 4.98315 9.49998 4.98315C10.9365 4.98315 12.101 6.14769 12.101 7.58421ZM13.101 7.58421C13.101 9.57302 11.4888 11.1853 9.49998 11.1853C7.51117 11.1853 5.89893 9.57302 5.89893 7.58421C5.89893 5.5954 7.51117 3.98315 9.49998 3.98315C11.4888 3.98315 13.101 5.5954 13.101 7.58421Z"
    fill="currentColor"
  ></path>
</symbol>
<symbol viewBox="0 0 15 15" fill="none" id="check">
  <path     fill-rule="evenodd"
    clip-rule="evenodd"
    d="M11.4669 3.72684C11.7558 3.91574 11.8369 4.30308 11.648 4.59198L7.39799 11.092C7.29783 11.2452 7.13556 11.3467 6.95402 11.3699C6.77247 11.3931 6.58989 11.3355 6.45446 11.2124L3.70446 8.71241C3.44905 8.48022 3.43023 8.08494 3.66242 7.82953C3.89461 7.57412 4.28989 7.55529 4.5453 7.78749L6.75292 9.79441L10.6018 3.90792C10.7907 3.61902 11.178 3.53795 11.4669 3.72684Z"
    fill="currentColor"
  ></path>
</symbol>
<symbol viewBox="0 0 24 24" fill="none" stroke="currentColor" stroke-width="2" stroke-linecap="round" stroke-linejoin="round" id="chevron-left">
  <path d="m15 18-6-6 6-6" ></path>
</symbol>
<symbol viewBox="0 0 24 24" fill="none" stroke="currentColor" stroke-width="2" stroke-linecap="round" stroke-linejoin="round" id="chevron-right">
  <path d="m9 18 6-6-6-6" ></path>
</symbol>
<symbol viewBox="0 0 24 24" fill="none" stroke="currentColor" stroke-width="2" stroke-linecap="round" stroke-linejoin="round" id="circle">
  <circle cx="12" cy="12" r="10" ></circle>
</symbol>
<symbol viewBox="0 0 15 15" fill="none" id="clock">
  <path     fill-rule="evenodd"
    clip-rule="evenodd"
    d="M7.50009 0.877014C3.84241 0.877014 0.877258 3.84216 0.877258 7.49984C0.877258 11.1575 3.8424 14.1227 7.50009 14.1227C11.1578 14.1227 14.1229 11.1575 14.1229 7.49984C14.1229 3.84216 11.1577 0.877014 7.50009 0.877014ZM1.82726 7.49984C1.82726 4.36683 4.36708 1.82701 7.50009 1.82701C10.6331 1.82701 13.1729 4.36683 13.1729 7.49984C13.1729 10.6328 10.6331 13.1727 7.50009 13.1727C4.36708 13.1727 1.82726 10.6328 1.82726 7.49984ZM8 4.50001C8 4.22387 7.77614 4.00001 7.5 4.00001C7.22386 4.00001 7 4.22387 7 4.50001V7.50001C7 7.63262 7.05268 7.7598 7.14645 7.85357L9.14645 9.85357C9.34171 10.0488 9.65829 10.0488 9.85355 9.85357C10.0488 9.65831 10.0488 9.34172 9.85355 9.14646L8 7.29291V4.50001Z"
    fill="currentColor"
  ></path>
</symbol>
<symbol viewBox="0 0 15 15" fill="none" id="cross-1">
  <path     fill-rule="evenodd"
    clip-rule="evenodd"
    d="M12.8536 2.85355C13.0488 2.65829 13.0488 2.34171 12.8536 2.14645C12.6583 1.95118 12.3417 1.95118 12.1464 2.14645L7.5 6.79289L2.85355 2.14645C2.65829 1.95118 2.34171 1.95118 2.14645 2.14645C1.95118 2.34171 1.95118 2.65829 2.14645 2.85355L6.79289 7.5L2.14645 12.1464C1.95118 12.3417 1.95118 12.6583 2.14645 12.8536C2.34171 13.0488 2.65829 13.0488 2.85355 12.8536L7.5 8.20711L12.1464 12.8536C12.3417 13.0488 12.6583 13.0488 12.8536 12.8536C13.0488 12.6583 13.0488 12.3417 12.8536 12.1464L8.20711 7.5L12.8536 2.85355Z"
    fill="currentColor"
  ></path>
</symbol>
<symbol viewBox="0 0 15 15" fill="none" id="dashboard">
  <path     fill-rule="evenodd"
    clip-rule="evenodd"
    d="M2.8 1L2.74967 0.99997C2.52122 0.999752 2.32429 0.999564 2.14983 1.04145C1.60136 1.17312 1.17312 1.60136 1.04145 2.14983C0.999564 2.32429 0.999752 2.52122 0.99997 2.74967L1 2.8V5.2L0.99997 5.25033C0.999752 5.47878 0.999564 5.67572 1.04145 5.85017C1.17312 6.39864 1.60136 6.82688 2.14983 6.95856C2.32429 7.00044 2.52122 7.00025 2.74967 7.00003L2.8 7H5.2L5.25033 7.00003C5.47878 7.00025 5.67572 7.00044 5.85017 6.95856C6.39864 6.82688 6.82688 6.39864 6.95856 5.85017C7.00044 5.67572 7.00025 5.47878 7.00003 5.25033L7 5.2V2.8L7.00003 2.74967C7.00025 2.52122 7.00044 2.32429 6.95856 2.14983C6.82688 1.60136 6.39864 1.17312 5.85017 1.04145C5.67572 0.999564 5.47878 0.999752 5.25033 0.99997L5.2 1H2.8ZM2.38328 2.01382C2.42632 2.00348 2.49222 2 2.8 2H5.2C5.50779 2 5.57369 2.00348 5.61672 2.01382C5.79955 2.05771 5.94229 2.20045 5.98619 2.38328C5.99652 2.42632 6 2.49222 6 2.8V5.2C6 5.50779 5.99652 5.57369 5.98619 5.61672C5.94229 5.79955 5.79955 5.94229 5.61672 5.98619C5.57369 5.99652 5.50779 6 5.2 6H2.8C2.49222 6 2.42632 5.99652 2.38328 5.98619C2.20045 5.94229 2.05771 5.79955 2.01382 5.61672C2.00348 5.57369 2 5.50779 2 5.2V2.8C2 2.49222 2.00348 2.42632 2.01382 2.38328C2.05771 2.20045 2.20045 2.05771 2.38328 2.01382ZM9.8 1L9.74967 0.99997C9.52122 0.999752 9.32429 0.999564 9.14983 1.04145C8.60136 1.17312 8.17312 1.60136 8.04145 2.14983C7.99956 2.32429 7.99975 2.52122 7.99997 2.74967L8 2.8V5.2L7.99997 5.25033C7.99975 5.47878 7.99956 5.67572 8.04145 5.85017C8.17312 6.39864 8.60136 6.82688 9.14983 6.95856C9.32429 7.00044 9.52122 7.00025 9.74967 7.00003L9.8 7H12.2L12.2503 7.00003C12.4788 7.00025 12.6757 7.00044 12.8502 6.95856C13.3986 6.82688 13.8269 6.39864 13.9586 5.85017C14.0004 5.67572 14.0003 5.47878 14 5.25033L14 5.2V2.8L14 2.74967C14.0003 2.52122 14.0004 2.32429 13.9586 2.14983C13.8269 1.60136 13.3986 1.17312 12.8502 1.04145C12.6757 0.999564 12.4788 0.999752 12.2503 0.99997L12.2 1H9.8ZM9.38328 2.01382C9.42632 2.00348 9.49222 2 9.8 2H12.2C12.5078 2 12.5737 2.00348 12.6167 2.01382C12.7995 2.05771 12.9423 2.20045 12.9862 2.38328C12.9965 2.42632 13 2.49222 13 2.8V5.2C13 5.50779 12.9965 5.57369 12.9862 5.61672C12.9423 5.79955 12.7995 5.94229 12.6167 5.98619C12.5737 5.99652 12.5078 6 12.2 6H9.8C9.49222 6 9.42632 5.99652 9.38328 5.98619C9.20045 5.94229 9.05771 5.79955 9.01382 5.61672C9.00348 5.57369 9 5.50779 9 5.2V2.8C9 2.49222 9.00348 2.42632 9.01382 2.38328C9.05771 2.20045 9.20045 2.05771 9.38328 2.01382ZM2.74967 7.99997L2.8 8H5.2L5.25033 7.99997C5.47878 7.99975 5.67572 7.99956 5.85017 8.04145C6.39864 8.17312 6.82688 8.60136 6.95856 9.14983C7.00044 9.32429 7.00025 9.52122 7.00003 9.74967L7 9.8V12.2L7.00003 12.2503C7.00025 12.4788 7.00044 12.6757 6.95856 12.8502C6.82688 13.3986 6.39864 13.8269 5.85017 13.9586C5.67572 14.0004 5.47878 14.0003 5.25033 14L5.2 14H2.8L2.74967 14C2.52122 14.0003 2.32429 14.0004 2.14983 13.9586C1.60136 13.8269 1.17312 13.3986 1.04145 12.8502C0.999564 12.6757 0.999752 12.4788 0.99997 12.2503L1 12.2V9.8L0.99997 9.74967C0.999752 9.52122 0.999564 9.32429 1.04145 9.14983C1.17312 8.60136 1.60136 8.17312 2.14983 8.04145C2.32429 7.99956 2.52122 7.99975 2.74967 7.99997ZM2.8 9C2.49222 9 2.42632 9.00348 2.38328 9.01382C2.20045 9.05771 2.05771 9.20045 2.01382 9.38328C2.00348 9.42632 2 9.49222 2 9.8V12.2C2 12.5078 2.00348 12.5737 2.01382 12.6167C2.05771 12.7995 2.20045 12.9423 2.38328 12.9862C2.42632 12.9965 2.49222 13 2.8 13H5.2C5.50779 13 5.57369 12.9965 5.61672 12.9862C5.79955 12.9423 5.94229 12.7995 5.98619 12.6167C5.99652 12.5737 6 12.5078 6 12.2V9.8C6 9.49222 5.99652 9.42632 5.98619 9.38328C5.94229 9.20045 5.79955 9.05771 5.61672 9.01382C5.57369 9.00348 5.50779 9 5.2 9H2.8ZM9.8 8L9.74967 7.99997C9.52122 7.99975 9.32429 7.99956 9.14983 8.04145C8.60136 8.17312 8.17312 8.60136 8.04145 9.14983C7.99956 9.32429 7.99975 9.52122 7.99997 9.74967L8 9.8V12.2L7.99997 12.2503C7.99975 12.4788 7.99956 12.6757 8.04145 12.8502C8.17312 13.3986 8.60136 13.8269 9.14983 13.9586C9.32429 14.0004 9.52122 14.0003 9.74967 14L9.8 14H12.2L12.2503 14C12.4788 14.0003 12.6757 14.0004 12.8502 13.9586C13.3986 13.8269 13.8269 13.3986 13.9586 12.8502C14.0004 12.6757 14.0003 12.4788 14 12.2503L14 12.2V9.8L14 9.74967C14.0003 9.52122 14.0004 9.32429 13.9586 9.14983C13.8269 8.60136 13.3986 8.17312 12.8502 8.04145C12.6757 7.99956 12.4788 7.99975 12.2503 7.99997L12.2 8H9.8ZM9.38328 9.01382C9.42632 9.00348 9.49222 9 9.8 9H12.2C12.5078 9 12.5737 9.00348 12.6167 9.01382C12.7995 9.05771 12.9423 9.20045 12.9862 9.38328C12.9965 9.42632 13 9.49222 13 9.8V12.2C13 12.5078 12.9965 12.5737 12.9862 12.6167C12.9423 12.7995 12.7995 12.9423 12.6167 12.9862C12.5737 12.9965 12.5078 13 12.2 13H9.8C9.49222 13 9.42632 12.9965 9.38328 12.9862C9.20045 12.9423 9.05771 12.7995 9.01382 12.6167C9.00348 12.5737 9 12.5078 9 12.2V9.8C9 9.49222 9.00348 9.42632 9.01382 9.38328C9.05771 9.20045 9.20045 9.05771 9.38328 9.01382Z"
    fill="currentColor"
  ></path>
</symbol>
<symbol viewBox="0 0 15 15" fill="none" id="dots-horizontal">
  <path     fill-rule="evenodd"
    clip-rule="evenodd"
    d="M3.625 7.5C3.625 8.12132 3.12132 8.625 2.5 8.625C1.87868 8.625 1.375 8.12132 1.375 7.5C1.375 6.87868 1.87868 6.375 2.5 6.375C3.12132 6.375 3.625 6.87868 3.625 7.5ZM8.625 7.5C8.625 8.12132 8.12132 8.625 7.5 8.625C6.87868 8.625 6.375 8.12132 6.375 7.5C6.375 6.87868 6.87868 6.375 7.5 6.375C8.12132 6.375 8.625 6.87868 8.625 7.5ZM12.5 8.625C13.1213 8.625 13.625 8.12132 13.625 7.5C13.625 6.87868 13.1213 6.375 12.5 6.375C11.8787 6.375 11.375 6.87868 11.375 7.5C11.375 8.12132 11.8787 8.625 12.5 8.625Z"
    fill="currentColor"
  ></path>
</symbol>
<symbol viewBox="0 0 15 15" fill="none" id="download">
  <path     fill-rule="evenodd"
    clip-rule="evenodd"
    d="M7.50005 1.04999C7.74858 1.04999 7.95005 1.25146 7.95005 1.49999V8.41359L10.1819 6.18179C10.3576 6.00605 10.6425 6.00605 10.8182 6.18179C10.994 6.35753 10.994 6.64245 10.8182 6.81819L7.81825 9.81819C7.64251 9.99392 7.35759 9.99392 7.18185 9.81819L4.18185 6.81819C4.00611 6.64245 4.00611 6.35753 4.18185 6.18179C4.35759 6.00605 4.64251 6.00605 4.81825 6.18179L7.05005 8.41359V1.49999C7.05005 1.25146 7.25152 1.04999 7.50005 1.04999ZM2.5 10C2.77614 10 3 10.2239 3 10.5V12C3 12.5539 3.44565 13 3.99635 13H11.0012C11.5529 13 12 12.5528 12 12V10.5C12 10.2239 12.2239 10 12.5 10C12.7761 10 13 10.2239 13 10.5V12C13 13.1041 12.1062 14 11.0012 14H3.99635C2.89019 14 2 13.103 2 12V10.5C2 10.2239 2.22386 10 2.5 10Z"
    fill="currentColor"
  ></path>
</symbol>
<symbol viewBox="0 0 15 15" fill="none" id="envelope-closed">
  <path     fill-rule="evenodd"
    clip-rule="evenodd"
    d="M1 2C0.447715 2 0 2.44772 0 3V12C0 12.5523 0.447715 13 1 13H14C14.5523 13 15 12.5523 15 12V3C15 2.44772 14.5523 2 14 2H1ZM1 3L14 3V3.92494C13.9174 3.92486 13.8338 3.94751 13.7589 3.99505L7.5 7.96703L1.24112 3.99505C1.16621 3.94751 1.0826 3.92486 1 3.92494V3ZM1 4.90797V12H14V4.90797L7.74112 8.87995C7.59394 8.97335 7.40606 8.97335 7.25888 8.87995L1 4.90797Z"
    fill="currentColor"
  ></path>
</symbol>
<symbol viewBox="0 0 15 15" fill="none" id="exit">
  <path     fill-rule="evenodd"
    clip-rule="evenodd"
    d="M3 1C2.44771 1 2 1.44772 2 2V13C2 13.5523 2.44772 14 3 14H10.5C10.7761 14 11 13.7761 11 13.5C11 13.2239 10.7761 13 10.5 13H3V2L10.5 2C10.7761 2 11 1.77614 11 1.5C11 1.22386 10.7761 1 10.5 1H3ZM12.6036 4.89645C12.4083 4.70118 12.0917 4.70118 11.8964 4.89645C11.7012 5.09171 11.7012 5.40829 11.8964 5.60355L13.2929 7H6.5C6.22386 7 6 7.22386 6 7.5C6 7.77614 6.22386 8 6.5 8H13.2929L11.8964 9.39645C11.7012 9.59171 11.7012 9.90829 11.8964 10.1036C12.0917 10.2988 12.4083 10.2988 12.6036 10.1036L14.8536 7.85355C15.0488 7.65829 15.0488 7.34171 14.8536 7.14645L12.6036 4.89645Z"
    fill="currentColor"
  ></path>
</symbol>
<symbol viewBox="0 0 15 15" fill="none" id="file-text">
  <path     fill-rule="evenodd"
    clip-rule="evenodd"
    d="M3 2.5C3 2.22386 3.22386 2 3.5 2H9.08579C9.21839 2 9.34557 2.05268 9.43934 2.14645L11.8536 4.56066C11.9473 4.65443 12 4.78161 12 4.91421V12.5C12 12.7761 11.7761 13 11.5 13H3.5C3.22386 13 3 12.7761 3 12.5V2.5ZM3.5 1C2.67157 1 2 1.67157 2 2.5V12.5C2 13.3284 2.67157 14 3.5 14H11.5C12.3284 14 13 13.3284 13 12.5V4.91421C13 4.51639 12.842 4.13486 12.5607 3.85355L10.1464 1.43934C9.86514 1.15804 9.48361 1 9.08579 1H3.5ZM4.5 4C4.22386 4 4 4.22386 4 4.5C4 4.77614 4.22386 5 4.5 5H7.5C7.77614 5 8 4.77614 8 4.5C8 4.22386 7.77614 4 7.5 4H4.5ZM4.5 7C4.22386 7 4 7.22386 4 7.5C4 7.77614 4.22386 8 4.5 8H10.5C10.7761 8 11 7.77614 11 7.5C11 7.22386 10.7761 7 10.5 7H4.5ZM4.5 10C4.22386 10 4 10.2239 4 10.5C4 10.7761 4.22386 11 4.5 11H10.5C10.7761 11 11 10.7761 11 10.5C11 10.2239 10.7761 10 10.5 10H4.5Z"
    fill="currentColor"
  ></path>
</symbol>
<symbol viewBox="0 0 15 15" fill="none" id="github-logo">
  <path     fill-rule="evenodd"
    clip-rule="evenodd"
    d="M7.49933 0.25C3.49635 0.25 0.25 3.49593 0.25 7.50024C0.25 10.703 2.32715 13.4206 5.2081 14.3797C5.57084 14.446 5.70302 14.2222 5.70302 14.0299C5.70302 13.8576 5.69679 13.4019 5.69323 12.797C3.67661 13.235 3.25112 11.825 3.25112 11.825C2.92132 10.9874 2.44599 10.7644 2.44599 10.7644C1.78773 10.3149 2.49584 10.3238 2.49584 10.3238C3.22353 10.375 3.60629 11.0711 3.60629 11.0711C4.25298 12.1788 5.30335 11.8588 5.71638 11.6732C5.78225 11.205 5.96962 10.8854 6.17658 10.7043C4.56675 10.5209 2.87415 9.89918 2.87415 7.12104C2.87415 6.32925 3.15677 5.68257 3.62053 5.17563C3.54576 4.99226 3.29697 4.25521 3.69174 3.25691C3.69174 3.25691 4.30015 3.06196 5.68522 3.99973C6.26337 3.83906 6.8838 3.75895 7.50022 3.75583C8.1162 3.75895 8.73619 3.83906 9.31523 3.99973C10.6994 3.06196 11.3069 3.25691 11.3069 3.25691C11.7026 4.25521 11.4538 4.99226 11.3795 5.17563C11.8441 5.68257 12.1245 6.32925 12.1245 7.12104C12.1245 9.9063 10.4292 10.5192 8.81452 10.6985C9.07444 10.9224 9.30633 11.3648 9.30633 12.0413C9.30633 13.0102 9.29742 13.7922 9.29742 14.0299C9.29742 14.2239 9.42828 14.4496 9.79591 14.3788C12.6746 13.4179 14.75 10.7025 14.75 7.50024C14.75 3.49593 11.5036 0.25 7.49933 0.25Z"
    fill="currentColor"
  ></path>
</symbol>
<symbol viewBox="0 0 15 15" fill="none" id="instagram-logo">
  <path fill-rule="evenodd" clip-rule="evenodd" d="M12.9091 12.909C13.2365 12.5817 13.4918 12.1895 13.6588 11.7577C13.8195 11.3443 13.9294 10.8718 13.961 10.1799C13.9926 9.48665 14.0001 9.26529 14.0001 7.50001C14.0001 5.73473 13.9926 5.51328 13.961 4.82008C13.9294 4.12821 13.8195 3.65573 13.6588 3.24228C13.4956 2.80857 13.2398 2.41567 12.9091 2.091C12.5844 1.76028 12.1915 1.50437 11.7578 1.34113C11.3443 1.18056 10.8718 1.0707 10.1799 1.03924C9.48675 1.00748 9.26537 1 7.50006 1C5.73476 1 5.51333 1.00748 4.82014 1.03912C4.12826 1.0707 3.65578 1.18056 3.24233 1.34125C2.80862 1.50447 2.41573 1.76032 2.09105 2.09098C1.76032 2.41563 1.5044 2.80852 1.34113 3.24225C1.18056 3.65573 1.0707 4.12821 1.03924 4.82008C1.00748 5.51328 1 5.73471 1 7.50001C1 9.26532 1.00748 9.48675 1.03924 10.1799C1.07083 10.8718 1.18069 11.3443 1.34138 11.7577C1.5046 12.1915 1.76045 12.5843 2.09111 12.909C2.41578 13.2397 2.80867 13.4955 3.24238 13.6587C3.65586 13.8194 4.12834 13.9293 4.82019 13.9609C5.51348 13.9925 5.73483 14 7.50012 14C9.2654 14 9.48685 13.9925 10.18 13.9609C10.8719 13.9293 11.3444 13.8194 11.7578 13.6587C12.1896 13.4917 12.5818 13.2364 12.9091 12.909ZM1.99949 6.73496C1.99974 6.94524 2.00005 7.19543 2.00005 7.50002C2.00005 7.80461 1.99974 8.0548 1.99949 8.26507C1.99849 9.08596 1.99824 9.29856 2.01963 9.7655C2.04625 10.3509 2.07823 10.7811 2.17588 11.1053C2.26976 11.417 2.37505 11.7342 2.7188 12.1171C3.06255 12.4999 3.39411 12.6733 3.81645 12.8007C4.23879 12.928 4.7696 12.9554 5.23052 12.9764C5.75332 13.0003 5.96052 13.0002 7.05714 12.9999L7.50006 12.9999C7.79304 12.9999 8.03569 13.0001 8.2409 13.0004C9.08195 13.0013 9.29425 13.0015 9.76575 12.9799C10.3512 12.9533 10.7814 12.9213 11.1056 12.8237C11.4173 12.7298 11.7345 12.6245 12.1173 12.2807C12.5001 11.937 12.6735 11.6054 12.8009 11.1831C12.9283 10.7607 12.9557 10.2299 12.9767 9.76902C13.0005 9.24689 13.0004 9.04027 13.0002 7.94749V7.94738L13.0001 7.50039L13.0001 7.05747C13.0004 5.96085 13.0005 5.75365 12.9766 5.23085C12.9556 4.76993 12.9282 4.23912 12.8009 3.81678C12.6735 3.39445 12.5001 3.06288 12.1173 2.71913C11.7345 2.37538 11.4172 2.27009 11.1056 2.17621C10.7813 2.07856 10.3511 2.04658 9.76571 2.01996C9.29421 1.99836 9.08194 1.99859 8.24092 1.99951H8.24092C8.0357 1.99974 7.79305 2.00001 7.50006 2.00001L7.05704 1.99993C5.96051 1.99964 5.75331 1.99958 5.23052 2.02343C4.7696 2.04446 4.23879 2.07183 3.81645 2.19921C3.39411 2.32659 3.06255 2.49999 2.7188 2.88281C2.37505 3.26562 2.26976 3.58286 2.17588 3.89453C2.07823 4.21874 2.04625 4.64894 2.01963 5.23437C1.99824 5.70131 1.99849 5.91401 1.99949 6.73496ZM7.49996 5.25015C6.25741 5.25015 5.25012 6.25744 5.25012 7.49999C5.25012 8.74254 6.25741 9.74983 7.49996 9.74983C8.74251 9.74983 9.7498 8.74254 9.7498 7.49999C9.7498 6.25744 8.74251 5.25015 7.49996 5.25015ZM4.25012 7.49999C4.25012 5.70515 5.70512 4.25015 7.49996 4.25015C9.2948 4.25015 10.7498 5.70515 10.7498 7.49999C10.7498 9.29483 9.2948 10.7498 7.49996 10.7498C5.70512 10.7498 4.25012 9.29483 4.25012 7.49999ZM10.9697 4.7803C11.3839 4.7803 11.7197 4.44452 11.7197 4.0303C11.7197 3.61609 11.3839 3.2803 10.9697 3.2803C10.5555 3.2803 10.2197 3.61609 10.2197 4.0303C10.2197 4.44452 10.5555 4.7803 10.9697 4.7803Z" fill="currentColor"></path>
</symbol>
<symbol viewBox="0 0 15 15" fill="none" id="laptop">
  <path     fill-rule="evenodd"
    clip-rule="evenodd"
    d="M2 4.25C2 4.11193 2.11193 4 2.25 4H12.75C12.8881 4 13 4.11193 13 4.25V11.5H2V4.25ZM2.25 3C1.55964 3 1 3.55964 1 4.25V12H0V12.5C0 12.7761 0.223858 13 0.5 13H14.5C14.7761 13 15 12.7761 15 12.5V12H14V4.25C14 3.55964 13.4404 3 12.75 3H2.25Z"
    fill="currentColor"
  ></path>
</symbol>
<symbol viewBox="0 0 15 15" fill="none" id="link-2">
  <path     fill-rule="evenodd"
    clip-rule="evenodd"
    d="M8.51194 3.00541C9.18829 2.54594 10.0435 2.53694 10.6788 2.95419C10.8231 3.04893 10.9771 3.1993 11.389 3.61119C11.8009 4.02307 11.9513 4.17714 12.046 4.32141C12.4633 4.95675 12.4543 5.81192 11.9948 6.48827C11.8899 6.64264 11.7276 6.80811 11.3006 7.23511L10.6819 7.85383C10.4867 8.04909 10.4867 8.36567 10.6819 8.56093C10.8772 8.7562 11.1938 8.7562 11.389 8.56093L12.0077 7.94221L12.0507 7.89929C12.4203 7.52976 12.6568 7.2933 12.822 7.0502C13.4972 6.05623 13.5321 4.76252 12.8819 3.77248C12.7233 3.53102 12.4922 3.30001 12.1408 2.94871L12.0961 2.90408L12.0515 2.85942C11.7002 2.508 11.4692 2.27689 11.2277 2.11832C10.2377 1.46813 8.94398 1.50299 7.95001 2.17822C7.70691 2.34336 7.47044 2.57991 7.1009 2.94955L7.058 2.99247L6.43928 3.61119C6.24401 3.80645 6.24401 4.12303 6.43928 4.31829C6.63454 4.51355 6.95112 4.51355 7.14638 4.31829L7.7651 3.69957C8.1921 3.27257 8.35757 3.11027 8.51194 3.00541ZM4.31796 7.14672C4.51322 6.95146 4.51322 6.63487 4.31796 6.43961C4.12269 6.24435 3.80611 6.24435 3.61085 6.43961L2.99213 7.05833L2.94922 7.10124C2.57957 7.47077 2.34303 7.70724 2.17788 7.95035C1.50265 8.94432 1.4678 10.238 2.11799 11.2281C2.27656 11.4695 2.50766 11.7005 2.8591 12.0518L2.90374 12.0965L2.94837 12.1411C3.29967 12.4925 3.53068 12.7237 3.77214 12.8822C4.76219 13.5324 6.05589 13.4976 7.04986 12.8223C7.29296 12.6572 7.52943 12.4206 7.89896 12.051L7.89897 12.051L7.94188 12.0081L8.5606 11.3894C8.75586 11.1941 8.75586 10.8775 8.5606 10.6823C8.36533 10.487 8.04875 10.487 7.85349 10.6823L7.23477 11.301C6.80777 11.728 6.6423 11.8903 6.48794 11.9951C5.81158 12.4546 4.95642 12.4636 4.32107 12.0464C4.17681 11.9516 4.02274 11.8012 3.61085 11.3894C3.19896 10.9775 3.0486 10.8234 2.95385 10.6791C2.53661 10.0438 2.54561 9.18863 3.00507 8.51227C3.10993 8.35791 3.27224 8.19244 3.69924 7.76544L4.31796 7.14672ZM9.62172 6.08558C9.81698 5.89032 9.81698 5.57373 9.62172 5.37847C9.42646 5.18321 9.10988 5.18321 8.91461 5.37847L5.37908 8.91401C5.18382 9.10927 5.18382 9.42585 5.37908 9.62111C5.57434 9.81637 5.89092 9.81637 6.08619 9.62111L9.62172 6.08558Z"
    fill="currentColor"
  ></path>
</symbol>
<symbol viewBox="0 0 15 15" fill="none" id="lock-closed">
  <path     fill-rule="evenodd"
    clip-rule="evenodd"
    d="M5 4.63601C5 3.76031 5.24219 3.1054 5.64323 2.67357C6.03934 2.24705 6.64582 1.9783 7.5014 1.9783C8.35745 1.9783 8.96306 2.24652 9.35823 2.67208C9.75838 3.10299 10 3.75708 10 4.63325V5.99999H5V4.63601ZM4 5.99999V4.63601C4 3.58148 4.29339 2.65754 4.91049 1.99307C5.53252 1.32329 6.42675 0.978302 7.5014 0.978302C8.57583 0.978302 9.46952 1.32233 10.091 1.99162C10.7076 2.65557 11 3.57896 11 4.63325V5.99999H12C12.5523 5.99999 13 6.44771 13 6.99999V13C13 13.5523 12.5523 14 12 14H3C2.44772 14 2 13.5523 2 13V6.99999C2 6.44771 2.44772 5.99999 3 5.99999H4ZM3 6.99999H12V13H3V6.99999Z"
    fill="currentColor"
  ></path>
</symbol>
<symbol viewBox="0 0 15 15" fill="none" id="lock-open-1">
  <path     fill-rule="evenodd"
    clip-rule="evenodd"
    d="M7.4986 0C6.3257 0 5.36107 0.38943 4.73753 1.19361C4.23745 1.83856 4 2.68242 4 3.63325H5C5 2.84313 5.19691 2.23312 5.5278 1.80636C5.91615 1.30552 6.55152 1 7.4986 1C8.35683 1 8.96336 1.26502 9.35846 1.68623C9.75793 2.11211 10 2.76044 10 3.63601V6H3C2.44772 6 2 6.44772 2 7V13C2 13.5523 2.44772 14 3 14H12C12.5523 14 13 13.5523 13 13V7C13 6.44771 12.5523 6 12 6H11V3.63601C11 2.58135 10.7065 1.66167 10.0878 1.0021C9.46477 0.337871 8.57061 0 7.4986 0ZM3 7H12V13H3V7Z"
    fill="currentColor"
  ></path>
</symbol>
<symbol viewBox="0 0 15 15" fill="none" id="magnifying-glass">
  <path     fill-rule="evenodd"
    clip-rule="evenodd"
    d="M10 6.5C10 8.433 8.433 10 6.5 10C4.567 10 3 8.433 3 6.5C3 4.567 4.567 3 6.5 3C8.433 3 10 4.567 10 6.5ZM9.30884 10.0159C8.53901 10.6318 7.56251 11 6.5 11C4.01472 11 2 8.98528 2 6.5C2 4.01472 4.01472 2 6.5 2C8.98528 2 11 4.01472 11 6.5C11 7.56251 10.6318 8.53901 10.0159 9.30884L12.8536 12.1464C13.0488 12.3417 13.0488 12.6583 12.8536 12.8536C12.6583 13.0488 12.3417 13.0488 12.1464 12.8536L9.30884 10.0159Z"
    fill="currentColor"
  ></path>
</symbol>
<symbol viewBox="0 0 15 15" fill="none" id="minus">
  <path     fill-rule="evenodd"
    clip-rule="evenodd"
    d="M2.25 7.5C2.25 7.22386 2.47386 7 2.75 7H12.25C12.5261 7 12.75 7.22386 12.75 7.5C12.75 7.77614 12.5261 8 12.25 8H2.75C2.47386 8 2.25 7.77614 2.25 7.5Z"
    fill="currentColor"
  ></path>
</symbol>
<symbol viewBox="0 0 15 15" fill="none" id="moon">
  <path     fill-rule="evenodd"
    clip-rule="evenodd"
    d="M2.89998 0.499976C2.89998 0.279062 2.72089 0.0999756 2.49998 0.0999756C2.27906 0.0999756 2.09998 0.279062 2.09998 0.499976V1.09998H1.49998C1.27906 1.09998 1.09998 1.27906 1.09998 1.49998C1.09998 1.72089 1.27906 1.89998 1.49998 1.89998H2.09998V2.49998C2.09998 2.72089 2.27906 2.89998 2.49998 2.89998C2.72089 2.89998 2.89998 2.72089 2.89998 2.49998V1.89998H3.49998C3.72089 1.89998 3.89998 1.72089 3.89998 1.49998C3.89998 1.27906 3.72089 1.09998 3.49998 1.09998H2.89998V0.499976ZM5.89998 3.49998C5.89998 3.27906 5.72089 3.09998 5.49998 3.09998C5.27906 3.09998 5.09998 3.27906 5.09998 3.49998V4.09998H4.49998C4.27906 4.09998 4.09998 4.27906 4.09998 4.49998C4.09998 4.72089 4.27906 4.89998 4.49998 4.89998H5.09998V5.49998C5.09998 5.72089 5.27906 5.89998 5.49998 5.89998C5.72089 5.89998 5.89998 5.72089 5.89998 5.49998V4.89998H6.49998C6.72089 4.89998 6.89998 4.72089 6.89998 4.49998C6.89998 4.27906 6.72089 4.09998 6.49998 4.09998H5.89998V3.49998ZM1.89998 6.49998C1.89998 6.27906 1.72089 6.09998 1.49998 6.09998C1.27906 6.09998 1.09998 6.27906 1.09998 6.49998V7.09998H0.499976C0.279062 7.09998 0.0999756 7.27906 0.0999756 7.49998C0.0999756 7.72089 0.279062 7.89998 0.499976 7.89998H1.09998V8.49998C1.09998 8.72089 1.27906 8.89997 1.49998 8.89997C1.72089 8.89997 1.89998 8.72089 1.89998 8.49998V7.89998H2.49998C2.72089 7.89998 2.89998 7.72089 2.89998 7.49998C2.89998 7.27906 2.72089 7.09998 2.49998 7.09998H1.89998V6.49998ZM8.54406 0.98184L8.24618 0.941586C8.03275 0.917676 7.90692 1.1655 8.02936 1.34194C8.17013 1.54479 8.29981 1.75592 8.41754 1.97445C8.91878 2.90485 9.20322 3.96932 9.20322 5.10022C9.20322 8.37201 6.82247 11.0878 3.69887 11.6097C3.45736 11.65 3.20988 11.6772 2.96008 11.6906C2.74563 11.702 2.62729 11.9535 2.77721 12.1072C2.84551 12.1773 2.91535 12.2458 2.98667 12.3128L3.05883 12.3795L3.31883 12.6045L3.50684 12.7532L3.62796 12.8433L3.81491 12.9742L3.99079 13.089C4.11175 13.1651 4.23536 13.2375 4.36157 13.3059L4.62496 13.4412L4.88553 13.5607L5.18837 13.6828L5.43169 13.7686C5.56564 13.8128 5.70149 13.8529 5.83857 13.8885C5.94262 13.9155 6.04767 13.9401 6.15405 13.9622C6.27993 13.9883 6.40713 14.0109 6.53544 14.0298L6.85241 14.0685L7.11934 14.0892C7.24637 14.0965 7.37436 14.1002 7.50322 14.1002C11.1483 14.1002 14.1032 11.1453 14.1032 7.50023C14.1032 7.25044 14.0893 7.00389 14.0623 6.76131L14.0255 6.48407C13.991 6.26083 13.9453 6.04129 13.8891 5.82642C13.8213 5.56709 13.7382 5.31398 13.6409 5.06881L13.5279 4.80132L13.4507 4.63542L13.3766 4.48666C13.2178 4.17773 13.0353 3.88295 12.8312 3.60423L12.6782 3.40352L12.4793 3.16432L12.3157 2.98361L12.1961 2.85951L12.0355 2.70246L11.8134 2.50184L11.4925 2.24191L11.2483 2.06498L10.9562 1.87446L10.6346 1.68894L10.3073 1.52378L10.1938 1.47176L9.95488 1.3706L9.67791 1.2669L9.42566 1.1846L9.10075 1.09489L8.83599 1.03486L8.54406 0.98184ZM10.4032 5.30023C10.4032 4.27588 10.2002 3.29829 9.83244 2.40604C11.7623 3.28995 13.1032 5.23862 13.1032 7.50023C13.1032 10.593 10.596 13.1002 7.50322 13.1002C6.63646 13.1002 5.81597 12.9036 5.08355 12.5522C6.5419 12.0941 7.81081 11.2082 8.74322 10.0416C8.87963 10.2284 9.10028 10.3497 9.34928 10.3497C9.76349 10.3497 10.0993 10.0139 10.0993 9.59971C10.0993 9.24256 9.84965 8.94373 9.51535 8.86816C9.57741 8.75165 9.63653 8.63334 9.6926 8.51332C9.88358 8.63163 10.1088 8.69993 10.35 8.69993C11.0403 8.69993 11.6 8.14028 11.6 7.44993C11.6 6.75976 11.0406 6.20024 10.3505 6.19993C10.3853 5.90487 10.4032 5.60464 10.4032 5.30023Z"
    fill="currentColor"
  ></path>
</symbol>
<symbol viewBox="0 0 15 15" fill="none" id="pencil-1">
  <path     fill-rule="evenodd"
    clip-rule="evenodd"
    d="M11.8536 1.14645C11.6583 0.951184 11.3417 0.951184 11.1465 1.14645L3.71455 8.57836C3.62459 8.66832 3.55263 8.77461 3.50251 8.89155L2.04044 12.303C1.9599 12.491 2.00189 12.709 2.14646 12.8536C2.29103 12.9981 2.50905 13.0401 2.69697 12.9596L6.10847 11.4975C6.2254 11.4474 6.3317 11.3754 6.42166 11.2855L13.8536 3.85355C14.0488 3.65829 14.0488 3.34171 13.8536 3.14645L11.8536 1.14645ZM4.42166 9.28547L11.5 2.20711L12.7929 3.5L5.71455 10.5784L4.21924 11.2192L3.78081 10.7808L4.42166 9.28547Z"
    fill="currentColor"
  ></path>
</symbol>
<symbol viewBox="0 0 15 15" fill="none" id="pencil-2">
  <path     fill-rule="evenodd"
    clip-rule="evenodd"
    d="M12.1464 1.14645C12.3417 0.951184 12.6583 0.951184 12.8535 1.14645L14.8535 3.14645C15.0488 3.34171 15.0488 3.65829 14.8535 3.85355L10.9109 7.79618C10.8349 7.87218 10.7471 7.93543 10.651 7.9835L6.72359 9.94721C6.53109 10.0435 6.29861 10.0057 6.14643 9.85355C5.99425 9.70137 5.95652 9.46889 6.05277 9.27639L8.01648 5.34897C8.06455 5.25283 8.1278 5.16507 8.2038 5.08907L12.1464 1.14645ZM12.5 2.20711L8.91091 5.79618L7.87266 7.87267L8.12731 8.12732L10.2038 7.08907L13.7929 3.5L12.5 2.20711ZM9.99998 2L8.99998 3H4.9C4.47171 3 4.18056 3.00039 3.95552 3.01877C3.73631 3.03668 3.62421 3.06915 3.54601 3.10899C3.35785 3.20487 3.20487 3.35785 3.10899 3.54601C3.06915 3.62421 3.03669 3.73631 3.01878 3.95552C3.00039 4.18056 3 4.47171 3 4.9V11.1C3 11.5283 3.00039 11.8194 3.01878 12.0445C3.03669 12.2637 3.06915 12.3758 3.10899 12.454C3.20487 12.6422 3.35785 12.7951 3.54601 12.891C3.62421 12.9309 3.73631 12.9633 3.95552 12.9812C4.18056 12.9996 4.47171 13 4.9 13H11.1C11.5283 13 11.8194 12.9996 12.0445 12.9812C12.2637 12.9633 12.3758 12.9309 12.454 12.891C12.6422 12.7951 12.7951 12.6422 12.891 12.454C12.9309 12.3758 12.9633 12.2637 12.9812 12.0445C12.9996 11.8194 13 11.5283 13 11.1V6.99998L14 5.99998V11.1V11.1207C14 11.5231 14 11.8553 13.9779 12.1259C13.9549 12.407 13.9057 12.6653 13.782 12.908C13.5903 13.2843 13.2843 13.5903 12.908 13.782C12.6653 13.9057 12.407 13.9549 12.1259 13.9779C11.8553 14 11.5231 14 11.1207 14H11.1H4.9H4.87934C4.47686 14 4.14468 14 3.87409 13.9779C3.59304 13.9549 3.33469 13.9057 3.09202 13.782C2.7157 13.5903 2.40973 13.2843 2.21799 12.908C2.09434 12.6653 2.04506 12.407 2.0221 12.1259C1.99999 11.8553 1.99999 11.5231 2 11.1207V11.1206V11.1V4.9V4.87935V4.87932V4.87931C1.99999 4.47685 1.99999 4.14468 2.0221 3.87409C2.04506 3.59304 2.09434 3.33469 2.21799 3.09202C2.40973 2.71569 2.7157 2.40973 3.09202 2.21799C3.33469 2.09434 3.59304 2.04506 3.87409 2.0221C4.14468 1.99999 4.47685 1.99999 4.87932 2H4.87935H4.9H9.99998Z"
    fill="currentColor"
  ></path>
</symbol>
<symbol viewBox="0 0 24 24" fill="none" stroke="currentColor" stroke-width="2" stroke-linecap="round" stroke-linejoin="round" id="phone">
  <path d="M22 16.92v3a2 2 0 0 1-2.18 2 19.79 19.79 0 0 1-8.63-3.07 19.5 19.5 0 0 1-6-6 19.79 19.79 0 0 1-3.07-8.67A2 2 0 0 1 4.11 2h3a2 2 0 0 1 2 1.72 12.84 12.84 0 0 0 .7 2.81 2 2 0 0 1-.45 2.11L8.09 9.91a16 16 0 0 0 6 6l1.27-1.27a2 2 0 0 1 2.11-.45 12.84 12.84 0 0 0 2.81.7A2 2 0 0 1 22 16.92z" ></path>
</symbol>
<symbol viewBox="0 0 15 15" fill="none" id="plus">
  <path     fill-rule="evenodd"
    clip-rule="evenodd"
    d="M8 2.75C8 2.47386 7.77614 2.25 7.5 2.25C7.22386 2.25 7 2.47386 7 2.75V7H2.75C2.47386 7 2.25 7.22386 2.25 7.5C2.25 7.77614 2.47386 8 2.75 8H7V12.25C7 12.5261 7.22386 12.75 7.5 12.75C7.77614 12.75 8 12.5261 8 12.25V8H12.25C12.5261 8 12.75 7.77614 12.75 7.5C12.75 7.22386 12.5261 7 12.25 7H8V2.75Z"
    fill="currentColor"
  ></path>
</symbol>
<symbol viewBox="0 0 15 15" fill="none" id="question-mark-circled">
  <path     fill-rule="evenodd"
    clip-rule="evenodd"
    d="M0.877075 7.49972C0.877075 3.84204 3.84222 0.876892 7.49991 0.876892C11.1576 0.876892 14.1227 3.84204 14.1227 7.49972C14.1227 11.1574 11.1576 14.1226 7.49991 14.1226C3.84222 14.1226 0.877075 11.1574 0.877075 7.49972ZM7.49991 1.82689C4.36689 1.82689 1.82708 4.36671 1.82708 7.49972C1.82708 10.6327 4.36689 13.1726 7.49991 13.1726C10.6329 13.1726 13.1727 10.6327 13.1727 7.49972C13.1727 4.36671 10.6329 1.82689 7.49991 1.82689ZM8.24993 10.5C8.24993 10.9142 7.91414 11.25 7.49993 11.25C7.08571 11.25 6.74993 10.9142 6.74993 10.5C6.74993 10.0858 7.08571 9.75 7.49993 9.75C7.91414 9.75 8.24993 10.0858 8.24993 10.5ZM6.05003 6.25C6.05003 5.57211 6.63511 4.925 7.50003 4.925C8.36496 4.925 8.95003 5.57211 8.95003 6.25C8.95003 6.74118 8.68002 6.99212 8.21447 7.27494C8.16251 7.30651 8.10258 7.34131 8.03847 7.37854L8.03841 7.37858C7.85521 7.48497 7.63788 7.61119 7.47449 7.73849C7.23214 7.92732 6.95003 8.23198 6.95003 8.7C6.95004 9.00376 7.19628 9.25 7.50004 9.25C7.8024 9.25 8.04778 9.00601 8.05002 8.70417L8.05056 8.7033C8.05924 8.6896 8.08493 8.65735 8.15058 8.6062C8.25207 8.52712 8.36508 8.46163 8.51567 8.37436L8.51571 8.37433C8.59422 8.32883 8.68296 8.27741 8.78559 8.21506C9.32004 7.89038 10.05 7.35382 10.05 6.25C10.05 4.92789 8.93511 3.825 7.50003 3.825C6.06496 3.825 4.95003 4.92789 4.95003 6.25C4.95003 6.55376 5.19628 6.8 5.50003 6.8C5.80379 6.8 6.05003 6.55376 6.05003 6.25Z"
    fill="currentColor"
  ></path>
</symbol>
<symbol viewBox="0 0 15 15" fill="none" id="reset">
  <path     fill-rule="evenodd"
    clip-rule="evenodd"
    d="M4.85355 2.14645C5.04882 2.34171 5.04882 2.65829 4.85355 2.85355L3.70711 4H9C11.4853 4 13.5 6.01472 13.5 8.5C13.5 10.9853 11.4853 13 9 13H5C4.72386 13 4.5 12.7761 4.5 12.5C4.5 12.2239 4.72386 12 5 12H9C10.933 12 12.5 10.433 12.5 8.5C12.5 6.567 10.933 5 9 5H3.70711L4.85355 6.14645C5.04882 6.34171 5.04882 6.65829 4.85355 6.85355C4.65829 7.04882 4.34171 7.04882 4.14645 6.85355L2.14645 4.85355C1.95118 4.65829 1.95118 4.34171 2.14645 4.14645L4.14645 2.14645C4.34171 1.95118 4.65829 1.95118 4.85355 2.14645Z"
    fill="currentColor"
  ></path>
</symbol>
<symbol viewBox="0 0 15 15" fill="none" id="star">
  <path     fill-rule="evenodd"
    clip-rule="evenodd"
    d="M6.97942 1.25171L6.9585 1.30199L5.58662 4.60039C5.54342 4.70426 5.44573 4.77523 5.3336 4.78422L1.7727 5.0697L1.71841 5.07405L1.38687 5.10063L1.08608 5.12475C0.820085 5.14607 0.712228 5.47802 0.914889 5.65162L1.14406 5.84793L1.39666 6.06431L1.43802 6.09974L4.15105 8.42374C4.23648 8.49692 4.2738 8.61176 4.24769 8.72118L3.41882 12.196L3.40618 12.249L3.32901 12.5725L3.25899 12.866C3.19708 13.1256 3.47945 13.3308 3.70718 13.1917L3.9647 13.0344L4.24854 12.861L4.29502 12.8326L7.34365 10.9705C7.43965 10.9119 7.5604 10.9119 7.6564 10.9705L10.705 12.8326L10.7515 12.861L11.0354 13.0344L11.2929 13.1917C11.5206 13.3308 11.803 13.1256 11.7411 12.866L11.671 12.5725L11.5939 12.249L11.5812 12.196L10.7524 8.72118C10.7263 8.61176 10.7636 8.49692 10.849 8.42374L13.562 6.09974L13.6034 6.06431L13.856 5.84793L14.0852 5.65162C14.2878 5.47802 14.18 5.14607 13.914 5.12475L13.6132 5.10063L13.2816 5.07405L13.2274 5.0697L9.66645 4.78422C9.55432 4.77523 9.45663 4.70426 9.41343 4.60039L8.04155 1.30199L8.02064 1.25171L7.89291 0.944609L7.77702 0.665992C7.67454 0.419604 7.32551 0.419604 7.22303 0.665992L7.10715 0.944609L6.97942 1.25171ZM7.50003 2.60397L6.50994 4.98442C6.32273 5.43453 5.89944 5.74207 5.41351 5.78103L2.84361 5.98705L4.8016 7.66428C5.17183 7.98142 5.33351 8.47903 5.2204 8.95321L4.62221 11.461L6.8224 10.1171C7.23842 9.86302 7.76164 9.86302 8.17766 10.1171L10.3778 11.461L9.77965 8.95321C9.66654 8.47903 9.82822 7.98142 10.1984 7.66428L12.1564 5.98705L9.58654 5.78103C9.10061 5.74207 8.67732 5.43453 8.49011 4.98442L7.50003 2.60397Z"
    fill="currentColor"
  ></path>
</symbol>
<symbol viewBox="0 0 15 15" fill="none" id="sun">
  <path     fill-rule="evenodd"
    clip-rule="evenodd"
    d="M7.5 0C7.77614 0 8 0.223858 8 0.5V2.5C8 2.77614 7.77614 3 7.5 3C7.22386 3 7 2.77614 7 2.5V0.5C7 0.223858 7.22386 0 7.5 0ZM2.1967 2.1967C2.39196 2.00144 2.70854 2.00144 2.90381 2.1967L4.31802 3.61091C4.51328 3.80617 4.51328 4.12276 4.31802 4.31802C4.12276 4.51328 3.80617 4.51328 3.61091 4.31802L2.1967 2.90381C2.00144 2.70854 2.00144 2.39196 2.1967 2.1967ZM0.5 7C0.223858 7 0 7.22386 0 7.5C0 7.77614 0.223858 8 0.5 8H2.5C2.77614 8 3 7.77614 3 7.5C3 7.22386 2.77614 7 2.5 7H0.5ZM2.1967 12.8033C2.00144 12.608 2.00144 12.2915 2.1967 12.0962L3.61091 10.682C3.80617 10.4867 4.12276 10.4867 4.31802 10.682C4.51328 10.8772 4.51328 11.1938 4.31802 11.3891L2.90381 12.8033C2.70854 12.9986 2.39196 12.9986 2.1967 12.8033ZM12.5 7C12.2239 7 12 7.22386 12 7.5C12 7.77614 12.2239 8 12.5 8H14.5C14.7761 8 15 7.77614 15 7.5C15 7.22386 14.7761 7 14.5 7H12.5ZM10.682 4.31802C10.4867 4.12276 10.4867 3.80617 10.682 3.61091L12.0962 2.1967C12.2915 2.00144 12.608 2.00144 12.8033 2.1967C12.9986 2.39196 12.9986 2.70854 12.8033 2.90381L11.3891 4.31802C11.1938 4.51328 10.8772 4.51328 10.682 4.31802ZM8 12.5C8 12.2239 7.77614 12 7.5 12C7.22386 12 7 12.2239 7 12.5V14.5C7 14.7761 7.22386 15 7.5 15C7.77614 15 8 14.7761 8 14.5V12.5ZM10.682 10.682C10.8772 10.4867 11.1938 10.4867 11.3891 10.682L12.8033 12.0962C12.9986 12.2915 12.9986 12.608 12.8033 12.8033C12.608 12.9986 12.2915 12.9986 12.0962 12.8033L10.682 11.3891C10.4867 11.1938 10.4867 10.8772 10.682 10.682ZM5.5 7.5C5.5 6.39543 6.39543 5.5 7.5 5.5C8.60457 5.5 9.5 6.39543 9.5 7.5C9.5 8.60457 8.60457 9.5 7.5 9.5C6.39543 9.5 5.5 8.60457 5.5 7.5ZM7.5 4.5C5.84315 4.5 4.5 5.84315 4.5 7.5C4.5 9.15685 5.84315 10.5 7.5 10.5C9.15685 10.5 10.5 9.15685 10.5 7.5C10.5 5.84315 9.15685 4.5 7.5 4.5Z"
    fill="currentColor"
  ></path>
</symbol>
<symbol viewBox="0 0 15 15" fill="none" id="trash">
  <path     fill-rule="evenodd"
    clip-rule="evenodd"
    d="M5.5 1C5.22386 1 5 1.22386 5 1.5C5 1.77614 5.22386 2 5.5 2H9.5C9.77614 2 10 1.77614 10 1.5C10 1.22386 9.77614 1 9.5 1H5.5ZM3 3.5C3 3.22386 3.22386 3 3.5 3H5H10H11.5C11.7761 3 12 3.22386 12 3.5C12 3.77614 11.7761 4 11.5 4H11V12C11 12.5523 10.5523 13 10 13H5C4.44772 13 4 12.5523 4 12V4L3.5 4C3.22386 4 3 3.77614 3 3.5ZM5 4H10V12H5V4Z"
    fill="currentColor"
  ></path>
</symbol>
<symbol viewBox="0 0 15 15" fill="none" id="update">
  <path     fill-rule="evenodd"
    clip-rule="evenodd"
    d="M1.90321 7.29677C1.90321 10.341 4.11041 12.4147 6.58893 12.8439C6.87255 12.893 7.06266 13.1627 7.01355 13.4464C6.96444 13.73 6.69471 13.9201 6.41109 13.871C3.49942 13.3668 0.86084 10.9127 0.86084 7.29677C0.860839 5.76009 1.55996 4.55245 2.37639 3.63377C2.96124 2.97568 3.63034 2.44135 4.16846 2.03202L2.53205 2.03202C2.25591 2.03202 2.03205 1.80816 2.03205 1.53202C2.03205 1.25588 2.25591 1.03202 2.53205 1.03202L5.53205 1.03202C5.80819 1.03202 6.03205 1.25588 6.03205 1.53202L6.03205 4.53202C6.03205 4.80816 5.80819 5.03202 5.53205 5.03202C5.25591 5.03202 5.03205 4.80816 5.03205 4.53202L5.03205 2.68645L5.03054 2.68759L5.03045 2.68766L5.03044 2.68767L5.03043 2.68767C4.45896 3.11868 3.76059 3.64538 3.15554 4.3262C2.44102 5.13021 1.90321 6.10154 1.90321 7.29677ZM13.0109 7.70321C13.0109 4.69115 10.8505 2.6296 8.40384 2.17029C8.12093 2.11718 7.93465 1.84479 7.98776 1.56188C8.04087 1.27898 8.31326 1.0927 8.59616 1.14581C11.4704 1.68541 14.0532 4.12605 14.0532 7.70321C14.0532 9.23988 13.3541 10.4475 12.5377 11.3662C11.9528 12.0243 11.2837 12.5586 10.7456 12.968L12.3821 12.968C12.6582 12.968 12.8821 13.1918 12.8821 13.468C12.8821 13.7441 12.6582 13.968 12.3821 13.968L9.38205 13.968C9.10591 13.968 8.88205 13.7441 8.88205 13.468L8.88205 10.468C8.88205 10.1918 9.10591 9.96796 9.38205 9.96796C9.65819 9.96796 9.88205 10.1918 9.88205 10.468L9.88205 12.3135L9.88362 12.3123C10.4551 11.8813 11.1535 11.3546 11.7585 10.6738C12.4731 9.86976 13.0109 8.89844 13.0109 7.70321Z"
    fill="currentColor"
  ></path>
</symbol>
<symbol viewBox="0 0 24 24" fill="none" stroke="currentColor" stroke-width="2" stroke-linecap="round" stroke-linejoin="round" id="x">
  <path d="M18 6 6 18" ></path>
  <path d="m6 6 12 12" ></path>
</symbol>
</defs>
</svg>
